<svg id="Layer_1" data-name="Layer 1" xmlns="http://www.w3.org/2000/svg" viewBox="0 0 130.95 142.97"><defs><style>.cls-1{fill:#d6dbc5;}</style></defs><title>best</title><path class="cls-1" d="M21.13,120.4H13.94l-.32-2a3.58,3.58,0,0,1,2.82-1.09h7.19l.31,2A3.48,3.48,0,0,1,21.13,120.4Z" transform="translate(-3.55 -8.75)"/><path class="cls-1" d="M33.55,105.71l.31,2.59a4.31,4.31,0,0,1-1.72,1.07v14.29a4.64,4.64,0,0,1,1.72,1l-.31,2.6H26.23l-.32-2.6a4.09,4.09,0,0,1,1.73-1V109.37a3.78,3.78,0,0,1-1.73-1.07l.32-2.59Z" transform="translate(-3.55 -8.75)"/><path class="cls-1" d="M40.89,115.5v8.22a3.76,3.76,0,0,1,1.72,1.16l-.31,2.41H36.17l-.31-2.41a3.81,3.81,0,0,1,1.72-1.16V109.27a3.65,3.65,0,0,1-1.78-1.16l.31-2.4h6.44l6.23,12.13a21.39,21.39,0,0,1,1.34,3.5l.22.75.34-.12a29.83,29.83,0,0,1-.43-4.57v-8.1a4,4,0,0,1-1.73-1.19l.32-2.4H55l.31,2.4a4,4,0,0,1-1.72,1.19v18H48.65l-6.29-12.23A21.32,21.32,0,0,1,41,111.52l-.22-.72-.34.13A29.72,29.72,0,0,1,40.89,115.5Z" transform="translate(-3.55 -8.75)"/><path class="cls-1" d="M80.8,105.74v4.47l-2,.25a3.07,3.07,0,0,1-.78-1.31H74.3v14.51a4.73,4.73,0,0,1,1.72,1l-.32,2.6H68.39l-.32-2.6a4,4,0,0,1,1.72-1V109.15H66a3.07,3.07,0,0,1-.78,1.31l-2-.25v-4.47Z" transform="translate(-3.55 -8.75)"/><path class="cls-1" d="M95.16,117.4H88.27v6.26a4.7,4.7,0,0,1,1.73,1l-.32,2.6H82.36l-.31-2.6a4,4,0,0,1,1.72-1V109.37a3.74,3.74,0,0,1-1.72-1.07l.31-2.59h7.32L90,108.3a4.29,4.29,0,0,1-1.73,1.07v4.91h6.89v-4.91a3.78,3.78,0,0,1-1.73-1.07l.32-2.59h7.32l.31,2.59a4.24,4.24,0,0,1-1.72,1.07v14.29a4.64,4.64,0,0,1,1.72,1l-.31,2.6H93.75l-.32-2.6a4.09,4.09,0,0,1,1.73-1Z" transform="translate(-3.55 -8.75)"/><path class="cls-1" d="M118.2,127.29H103.69l-.31-2.6a4,4,0,0,1,1.72-1V109.37a3.74,3.74,0,0,1-1.72-1.07l.31-2.59H118v5.44l-2.31.28a4.58,4.58,0,0,1-1.16-2.32H109.6v5.38H114a3.71,3.71,0,0,1,.78-1.31l2,.22V119l-2,.25a3.06,3.06,0,0,1-.78-1.32H109.6v6h5.13a4.61,4.61,0,0,1,1.16-2.32l2.31.28Z" transform="translate(-3.55 -8.75)"/><path class="cls-1" d="M128.18,120.4H121l-.31-2a3.54,3.54,0,0,1,2.81-1.09h7.19l.32,2A3.52,3.52,0,0,1,128.18,120.4Z" transform="translate(-3.55 -8.75)"/><path class="cls-1" d="M3.55,135.28H9l5.54,12.37,4.66-12.37h5.92l5.35,12.37,5.15-12.37h5.19l-7.42,16.1H27.19l-5.09-12-4.46,12H11.53Z" transform="translate(-3.55 -8.75)"/><path class="cls-1" d="M41.56,143.18A7,7,0,0,1,44.48,137c2-1.34,5-2,9-2s7,.69,9,2.07a8.26,8.26,0,0,1,0,12.59q-2.93,2.07-9,2.07-6.19,0-9.05-2.07T41.56,143.18Zm11.93-5.45a7.57,7.57,0,0,0-4.86,1.35,5.21,5.21,0,0,0-1.58,4.12,5.52,5.52,0,0,0,1.55,4.34q1.53,1.4,4.89,1.4a10.3,10.3,0,0,0,2.86-.35,4.83,4.83,0,0,0,2-1,5.22,5.22,0,0,0,1.62-4.23,5.33,5.33,0,0,0-1.57-4.23A7.35,7.35,0,0,0,53.49,137.73Z" transform="translate(-3.55 -8.75)"/><path class="cls-1" d="M68.81,135.28H81.2c2.86,0,5,.4,6.31,1.19a4.28,4.28,0,0,1,.78,6.65,6.31,6.31,0,0,1-3.59,1.54l6,6.72H85l-5.23-6.31H73.82v6.31h-5ZM80,138.18H73.82v4H80a9.42,9.42,0,0,0,3.48-.46,1.69,1.69,0,0,0,1-1.59,1.59,1.59,0,0,0-1-1.55A9.43,9.43,0,0,0,80,138.18Z" transform="translate(-3.55 -8.75)"/><path class="cls-1" d="M103.24,151.38a22.71,22.71,0,0,1-4.95-.39,7.44,7.44,0,0,1-2.88-1.31,4.67,4.67,0,0,1-1.68-1.85,6.79,6.79,0,0,1-.52-3v-9.58h5v9.47a6.9,6.9,0,0,0,.2,2,2.2,2.2,0,0,0,.57.87,3.4,3.4,0,0,0,.85.5,7.84,7.84,0,0,0,1,.35,15.37,15.37,0,0,0,2.88.23h5.91v2.67Z" transform="translate(-3.55 -8.75)"/><path class="cls-1" d="M112.3,135.28h11q5.72,0,8.48,2t2.77,6.3a7.41,7.41,0,0,1-.94,3.8,6.61,6.61,0,0,1-2.74,2.54,11.45,11.45,0,0,1-3.06,1.1,23.67,23.67,0,0,1-4.37.32H112.3Zm10.84,2.82h-5.83v10.47h5.84c2.22,0,3.76-.39,4.61-1.15s1.25-2.11,1.25-4.09-.42-3.31-1.25-4.09S125.36,138.1,123.14,138.1Z" transform="translate(-3.55 -8.75)"/><path class="cls-1" d="M20.15,22.36H15.59l-.2-1.62a2.54,2.54,0,0,1,1.08-.64V17.86l-3.18-6.62A2.62,2.62,0,0,1,12,10.52L12.21,9V9l0-.08H16.8L17,10.52a1.88,1.88,0,0,1-.89.59l.66,1.5a25.94,25.94,0,0,1,1,2.55l.14.39h.29a24,24,0,0,1,1.07-2.94l.63-1.42a2.46,2.46,0,0,1-1.05-.67L19,8.9h4.45l.19,1.62a2.8,2.8,0,0,1-1.29.74l-3.08,6.6V20.1a3,3,0,0,1,1.08.64Z" transform="translate(-3.55 -8.75)"/><path class="cls-1" d="M29.2,22.52a5.16,5.16,0,0,1-4.14-1.6c-.92-1.07-1.38-2.79-1.38-5.18s.5-4.15,1.51-5.29a5.49,5.49,0,0,1,4.31-1.7,5.38,5.38,0,0,1,4.18,1.52q1.37,1.52,1.37,5.09a8,8,0,0,1-1.54,5.36A5.37,5.37,0,0,1,29.2,22.52ZM27.31,12a6.47,6.47,0,0,0-.7,3.53,6.89,6.89,0,0,0,.74,3.66,2.4,2.4,0,0,0,4,.07,6.64,6.64,0,0,0,.73-3.6q0-4.68-2.81-4.68A2.3,2.3,0,0,0,27.31,12Z" transform="translate(-3.55 -8.75)"/><path class="cls-1" d="M45.46,21.28a5,5,0,0,1-3.76,1.24,4.61,4.61,0,0,1-3.64-1.22,5.82,5.82,0,0,1-1-3.81v-6.3A2.63,2.63,0,0,1,36,10.52l.19-1.62h4.57l.19,1.62a2.63,2.63,0,0,1-1.07.67v6.37a3.71,3.71,0,0,0,.46,2.08,1.84,1.84,0,0,0,1.65.67,1.9,1.9,0,0,0,1.67-.69,3.54,3.54,0,0,0,.49-2.06V11.19A2.31,2.31,0,0,1,43,10.52l.19-1.62h4.27l.2,1.62a2.7,2.7,0,0,1-1.07.67v6.3A5.41,5.41,0,0,1,45.46,21.28Z" transform="translate(-3.55 -8.75)"/><path class="cls-1" d="M60,8.81l3.88,11.25a2.76,2.76,0,0,1,1.15.68l-.2,1.62H60.27l-.2-1.62a2.14,2.14,0,0,1,.94-.58l-.53-1.64h-3.9L56.1,20.1a2.75,2.75,0,0,1,1,.64l-.2,1.62H52.47l-.2-1.62A2.66,2.66,0,0,1,53.58,20L57.32,8.81Zm-1.62,2.73a9.82,9.82,0,0,1-.49,2.77l-.76,2.41h2.79l-.74-2.37a9.69,9.69,0,0,1-.51-2.48l0-.33Z" transform="translate(-3.55 -8.75)"/><path class="cls-1" d="M76.14,12.84a3.13,3.13,0,0,1-.83,2.23,5.23,5.23,0,0,1-2.07,1.36,2.45,2.45,0,0,1,1.28,1L76,20.14a2.79,2.79,0,0,1,1.25.72l-.2,1.5H73.71l-2.25-4.78c-.2-.48-.45-.72-.72-.72H69.47V20a3.33,3.33,0,0,1,1.78.76l-.2,1.62H65.79l-.2-1.62a2.54,2.54,0,0,1,1.08-.64V11.19a2.3,2.3,0,0,1-1.08-.67l.2-1.62h5a8,8,0,0,1,4.06.88A3.34,3.34,0,0,1,76.14,12.84ZM70.62,11H69.47v3.71h1.12a3.9,3.9,0,0,0,2-.4,1.55,1.55,0,0,0,.66-1.44,1.56,1.56,0,0,0-.67-1.45A3.61,3.61,0,0,0,70.62,11Z" transform="translate(-3.55 -8.75)"/><path class="cls-1" d="M87.09,22.36H78l-.2-1.62a2.56,2.56,0,0,1,1.07-.64V11.19a2.31,2.31,0,0,1-1.07-.67L78,8.9h8.89v3.4l-1.44.17A2.91,2.91,0,0,1,84.76,11h-3v3.35h2.71a2.22,2.22,0,0,1,.49-.81l1.23.13v3.47l-1.23.16a1.89,1.89,0,0,1-.49-.82H81.72v3.73h3.2a2.93,2.93,0,0,1,.72-1.45l1.45.18Z" transform="translate(-3.55 -8.75)"/><path class="cls-1" d="M103.19,8.92v2.79l-1.22.16a1.89,1.89,0,0,1-.49-.82H99.14V20.1a2.87,2.87,0,0,1,1.07.64L100,22.36H95.45l-.19-1.62a2.49,2.49,0,0,1,1.07-.64v-9H94a1.89,1.89,0,0,1-.49.82l-1.23-.16V8.92Z" transform="translate(-3.55 -8.75)"/><path class="cls-1" d="M112.15,16.2h-4.29v3.9a3,3,0,0,1,1.07.64l-.2,1.62h-4.56l-.2-1.62a2.54,2.54,0,0,1,1.08-.64V11.19a2.36,2.36,0,0,1-1.08-.67l.2-1.62h4.56l.2,1.62a2.7,2.7,0,0,1-1.07.67v3.06h4.29V11.19a2.36,2.36,0,0,1-1.08-.67l.2-1.62h4.56l.2,1.62a2.67,2.67,0,0,1-1.08.67V20.1a3,3,0,0,1,1.08.64l-.2,1.62h-4.56l-.2-1.62a2.54,2.54,0,0,1,1.08-.64Z" transform="translate(-3.55 -8.75)"/><path class="cls-1" d="M126.52,22.36h-9l-.19-1.62a2.43,2.43,0,0,1,1.07-.64V11.19a2.26,2.26,0,0,1-1.07-.67l.19-1.62h8.89v3.4l-1.44.17A2.83,2.83,0,0,1,124.2,11h-3v3.35h2.71a2.22,2.22,0,0,1,.48-.81l1.23.13v3.47l-1.23.16a1.9,1.9,0,0,1-.48-.82h-2.71v3.73h3.19a2.85,2.85,0,0,1,.73-1.45l1.44.18Z" transform="translate(-3.55 -8.75)"/><path class="cls-1" d="M23.39,89.54A6.15,6.15,0,0,1,22.56,93a4.82,4.82,0,0,1-2.18,1.79,9.47,9.47,0,0,1-3.09.66q-1.74.09-3.54.09H8.93V30.47h4.82c1.51,0,2.86,0,4.05.1a8.27,8.27,0,0,1,3,.66A4,4,0,0,1,22.73,33a7.49,7.49,0,0,1,.66,3.49V57a4,4,0,0,1-.9,2.79,5.56,5.56,0,0,1-2.71,1.47,5.14,5.14,0,0,1,2.71,1.4,4,4,0,0,1,.9,2.78ZM13.75,59.4h3.62a1,1,0,0,0,.69-.2,1.11,1.11,0,0,0,.36-.55,2.53,2.53,0,0,0,.13-.77c0-.29,0-.58,0-.89V36.5a3.21,3.21,0,0,0-.24-1.39,1.51,1.51,0,0,0-.81-.72A4.54,4.54,0,0,0,16,34.13c-.62,0-1.38,0-2.28,0Zm4.82,6c0-.3,0-.59,0-.88a2.53,2.53,0,0,0-.13-.77,1.11,1.11,0,0,0-.36-.55,1,1,0,0,0-.69-.21H13.75V92c.9,0,1.66,0,2.28,0a4.79,4.79,0,0,0,1.49-.27,1.54,1.54,0,0,0,.81-.71,3.26,3.26,0,0,0,.24-1.4Z" transform="translate(-3.55 -8.75)"/><path class="cls-1" d="M38.29,34.09h-6V59.4h4.83V63H32.26V92h6v3.61H27.44V30.47H38.29Z" transform="translate(-3.55 -8.75)"/><path class="cls-1" d="M49.58,79.71a48.15,48.15,0,0,0-.42-6.86,30.93,30.93,0,0,0-1.09-5,16.84,16.84,0,0,0-1.6-3.66l-1.79-3L43,58.4a19.58,19.58,0,0,1-1.53-3.18,22.27,22.27,0,0,1-1.09-4.08,31.74,31.74,0,0,1-.42-5.56V36.5a8.61,8.61,0,0,1,.29-2,5.37,5.37,0,0,1,1.07-2.15,6.36,6.36,0,0,1,2.2-1.7,8.42,8.42,0,0,1,3.68-.69,8.4,8.4,0,0,1,3.67.69A6.27,6.27,0,0,1,53,32.3a5.53,5.53,0,0,1,1.08,2.15,9.1,9.1,0,0,1,.28,2V53.38H49.58V36.5A4.49,4.49,0,0,0,49.37,35a2.19,2.19,0,0,0-.55-.9,1.73,1.73,0,0,0-.77-.45,2.87,2.87,0,0,0-1.77,0,1.73,1.73,0,0,0-.77.45A2.19,2.19,0,0,0,45,35a4.45,4.45,0,0,0-.2,1.48v7.33a29,29,0,0,0,.73,7.11,23.26,23.26,0,0,0,1.83,5q1.09,2.13,2.22,3.93l2.32,3.75a15.93,15.93,0,0,1,1.87,4.6,27.43,27.43,0,0,1,.67,6.62V89.53c0,.3,0,.85-.11,1.64a6.51,6.51,0,0,1-.79,2.44,6.33,6.33,0,0,1-2.15,2.2,7.56,7.56,0,0,1-4.18,1,7.66,7.66,0,0,1-4.19-1,6.24,6.24,0,0,1-2.93-4.64c-.08-.79-.12-1.33-.12-1.64V67.84h4.83v21.7c0,.31,0,.66,0,1.08a3.9,3.9,0,0,0,.27,1.18,2.32,2.32,0,0,0,.71,1,2.63,2.63,0,0,0,2.79,0,2.26,2.26,0,0,0,.72-1,3.89,3.89,0,0,0,.26-1.18c0-.42,0-.78,0-1.08Z" transform="translate(-3.55 -8.75)"/><path class="cls-1" d="M70.51,30.47v3.62H65.68V95.57H60.86V34.09H56V30.47Z" transform="translate(-3.55 -8.75)"/><path class="cls-1" d="M96,89.54A6.23,6.23,0,0,1,95.15,93,4.9,4.9,0,0,1,93,94.82a9.36,9.36,0,0,1-3.09.66q-1.73.09-3.54.09H81.51V30.47h4.82c1.21,0,2.39,0,3.54.1a9.11,9.11,0,0,1,3.09.66A4.88,4.88,0,0,1,95.15,33,6.23,6.23,0,0,1,96,36.5Zm-4.82-53a3.21,3.21,0,0,0-.24-1.39,1.51,1.51,0,0,0-.81-.72,4.54,4.54,0,0,0-1.49-.26c-.62,0-1.38,0-2.28,0V92c.9,0,1.66,0,2.28,0a4.79,4.79,0,0,0,1.49-.27,1.54,1.54,0,0,0,.81-.71,3.26,3.26,0,0,0,.24-1.4Z" transform="translate(-3.55 -8.75)"/><path class="cls-1" d="M113.29,95.57h-4.83l-.6-15.67h-3.58l-.64,15.67H98.82l3.62-65.1h7.23Zm-6-33.75-1.21-28.94-1.2,28.94-.57,14.46h3.58Z" transform="translate(-3.55 -8.75)"/><path class="cls-1" d="M130.6,89.54a6.23,6.23,0,0,1-.83,3.49,4.8,4.8,0,0,1-2.19,1.79,9.36,9.36,0,0,1-3.09.66q-1.72.09-3.54.09h-4.82V30.47H121c1.21,0,2.39,0,3.54.1a9.11,9.11,0,0,1,3.09.66A4.78,4.78,0,0,1,129.77,33a6.23,6.23,0,0,1,.83,3.49Zm-4.83-53a3.21,3.21,0,0,0-.24-1.39,1.45,1.45,0,0,0-.81-.72,4.49,4.49,0,0,0-1.49-.26c-.61,0-1.37,0-2.28,0V92c.91,0,1.67,0,2.28,0a4.73,4.73,0,0,0,1.49-.27,1.47,1.47,0,0,0,.81-.71,3.26,3.26,0,0,0,.24-1.4Z" transform="translate(-3.55 -8.75)"/></svg>